<mxfile host="app.diagrams.net" modified="2020-10-30T10:29:07.199Z" agent="5.0 (Windows NT 10.0; Win64; x64) AppleWebKit/537.36 (KHTML, like Gecko) Chrome/86.0.4240.111 Safari/537.36" etag="TqtO4fpb_TezsJjzXXFs" version="13.8.7" type="github">
  <diagram id="ycEjqVpXePG6-zR8Ts4k" name="Page-1">
    <mxGraphModel dx="1038" dy="492" grid="1" gridSize="10" guides="1" tooltips="1" connect="1" arrows="1" fold="1" page="1" pageScale="1" pageWidth="827" pageHeight="1169" math="0" shadow="0">
      <root>
        <mxCell id="0" />
        <mxCell id="1" parent="0" />
        <mxCell id="rhqVc5pt0watMIWav85S-1" value="美事" style="shape=umlLifeline;participant=umlBoundary;perimeter=lifelinePerimeter;whiteSpace=wrap;html=1;container=1;collapsible=0;recursiveResize=0;verticalAlign=top;spacingTop=36;outlineConnect=0;" parent="1" vertex="1">
          <mxGeometry x="100" y="60" width="50" height="650" as="geometry" />
        </mxCell>
        <mxCell id="rhqVc5pt0watMIWav85S-10" value="" style="html=1;points=[];perimeter=orthogonalPerimeter;" parent="rhqVc5pt0watMIWav85S-1" vertex="1">
          <mxGeometry x="20" y="140" width="10" height="80" as="geometry" />
        </mxCell>
        <mxCell id="rhqVc5pt0watMIWav85S-2" value="美事中间页" style="shape=umlLifeline;participant=umlBoundary;perimeter=lifelinePerimeter;whiteSpace=wrap;html=1;container=1;collapsible=0;recursiveResize=0;verticalAlign=top;spacingTop=36;outlineConnect=0;" parent="1" vertex="1">
          <mxGeometry x="270" y="60" width="50" height="650" as="geometry" />
        </mxCell>
        <mxCell id="rhqVc5pt0watMIWav85S-11" value="" style="html=1;points=[];perimeter=orthogonalPerimeter;" parent="rhqVc5pt0watMIWav85S-2" vertex="1">
          <mxGeometry x="20" y="140" width="10" height="190" as="geometry" />
        </mxCell>
        <mxCell id="rhqVc5pt0watMIWav85S-12" value="将oa和msKey&lt;br&gt;存储到cookie中" style="edgeStyle=orthogonalEdgeStyle;html=1;align=left;spacingLeft=2;endArrow=block;rounded=0;entryX=1.04;entryY=0.315;exitX=1.28;exitY=0.535;exitDx=0;exitDy=0;exitPerimeter=0;entryDx=0;entryDy=0;entryPerimeter=0;" parent="rhqVc5pt0watMIWav85S-2" target="rhqVc5pt0watMIWav85S-11" edge="1">
          <mxGeometry relative="1" as="geometry">
            <mxPoint x="32.799999999999955" y="161.39999999999998" as="sourcePoint" />
            <Array as="points">
              <mxPoint x="30" y="161" />
              <mxPoint x="30" y="160" />
              <mxPoint x="50" y="160" />
              <mxPoint x="50" y="200" />
            </Array>
          </mxGeometry>
        </mxCell>
        <mxCell id="rhqVc5pt0watMIWav85S-35" value="" style="html=1;points=[];perimeter=orthogonalPerimeter;" parent="rhqVc5pt0watMIWav85S-2" vertex="1">
          <mxGeometry x="20" y="500" width="10" height="90" as="geometry" />
        </mxCell>
        <mxCell id="rhqVc5pt0watMIWav85S-4" value="目睹直播间" style="shape=umlLifeline;participant=umlBoundary;perimeter=lifelinePerimeter;whiteSpace=wrap;html=1;container=1;collapsible=0;recursiveResize=0;verticalAlign=top;spacingTop=36;outlineConnect=0;" parent="1" vertex="1">
          <mxGeometry x="400" y="60" width="50" height="650" as="geometry" />
        </mxCell>
        <mxCell id="rhqVc5pt0watMIWav85S-15" value="" style="html=1;points=[];perimeter=orthogonalPerimeter;" parent="rhqVc5pt0watMIWav85S-4" vertex="1">
          <mxGeometry x="20" y="240" width="10" height="80" as="geometry" />
        </mxCell>
        <mxCell id="vePK7jMqt0TTUH_p8GlZ-1" value="" style="html=1;points=[];perimeter=orthogonalPerimeter;" vertex="1" parent="rhqVc5pt0watMIWav85S-4">
          <mxGeometry x="20" y="550" width="10" height="80" as="geometry" />
        </mxCell>
        <mxCell id="rhqVc5pt0watMIWav85S-9" value="index?oa=?&amp;amp;msKey=?" style="html=1;verticalAlign=bottom;startArrow=oval;endArrow=block;startSize=8;exitX=0.96;exitY=-0.002;exitDx=0;exitDy=0;exitPerimeter=0;" parent="1" source="rhqVc5pt0watMIWav85S-10" edge="1">
          <mxGeometry relative="1" as="geometry">
            <mxPoint x="210" y="200" as="sourcePoint" />
            <mxPoint x="290" y="200" as="targetPoint" />
          </mxGeometry>
        </mxCell>
        <mxCell id="rhqVc5pt0watMIWav85S-16" value="请求目睹直播页" style="html=1;verticalAlign=bottom;endArrow=block;entryX=0;entryY=0;" parent="1" source="rhqVc5pt0watMIWav85S-11" target="rhqVc5pt0watMIWav85S-15" edge="1">
          <mxGeometry relative="1" as="geometry">
            <mxPoint x="350" y="300" as="sourcePoint" />
          </mxGeometry>
        </mxCell>
        <mxCell id="rhqVc5pt0watMIWav85S-17" value="重定向" style="html=1;verticalAlign=bottom;endArrow=open;dashed=1;endSize=8;exitX=0;exitY=0.95;" parent="1" source="rhqVc5pt0watMIWav85S-15" edge="1">
          <mxGeometry relative="1" as="geometry">
            <mxPoint x="310" y="377" as="targetPoint" />
          </mxGeometry>
        </mxCell>
        <mxCell id="rhqVc5pt0watMIWav85S-18" value="美事服务" style="shape=umlLifeline;participant=umlBoundary;perimeter=lifelinePerimeter;whiteSpace=wrap;html=1;container=1;collapsible=0;recursiveResize=0;verticalAlign=top;spacingTop=36;outlineConnect=0;" parent="1" vertex="1">
          <mxGeometry x="510" y="60" width="50" height="650" as="geometry" />
        </mxCell>
        <mxCell id="vePK7jMqt0TTUH_p8GlZ-3" value="根据api生成链接" style="edgeStyle=orthogonalEdgeStyle;html=1;align=left;spacingLeft=2;endArrow=block;rounded=0;entryX=1;entryY=0;" edge="1" parent="rhqVc5pt0watMIWav85S-18">
          <mxGeometry relative="1" as="geometry">
            <mxPoint x="25" y="420" as="sourcePoint" />
            <Array as="points">
              <mxPoint x="50" y="420" />
            </Array>
            <mxPoint x="30" y="440" as="targetPoint" />
          </mxGeometry>
        </mxCell>
        <mxCell id="vePK7jMqt0TTUH_p8GlZ-4" value="" style="html=1;points=[];perimeter=orthogonalPerimeter;" vertex="1" parent="rhqVc5pt0watMIWav85S-18">
          <mxGeometry x="20" y="370" width="10" height="90" as="geometry" />
        </mxCell>
        <mxCell id="rhqVc5pt0watMIWav85S-25" value="" style="html=1;points=[];perimeter=orthogonalPerimeter;" parent="1" vertex="1">
          <mxGeometry x="290" y="420" width="10" height="110" as="geometry" />
        </mxCell>
        <mxCell id="rhqVc5pt0watMIWav85S-28" value="携带oa和msKey获取目睹身份赋予" style="html=1;verticalAlign=bottom;endArrow=block;entryX=0;entryY=0;exitX=1.12;exitY=0.133;exitDx=0;exitDy=0;exitPerimeter=0;" parent="1" source="rhqVc5pt0watMIWav85S-25" edge="1">
          <mxGeometry relative="1" as="geometry">
            <mxPoint x="460" y="440" as="sourcePoint" />
            <mxPoint x="530" y="440.0000000000001" as="targetPoint" />
          </mxGeometry>
        </mxCell>
        <mxCell id="rhqVc5pt0watMIWav85S-29" value="身份赋予链接" style="html=1;verticalAlign=bottom;endArrow=open;dashed=1;endSize=8;exitX=0;exitY=0.95;" parent="1" edge="1">
          <mxGeometry relative="1" as="geometry">
            <mxPoint x="300" y="516" as="targetPoint" />
            <mxPoint x="530" y="516" as="sourcePoint" />
          </mxGeometry>
        </mxCell>
        <mxCell id="rhqVc5pt0watMIWav85S-33" value="种cookie" style="edgeStyle=orthogonalEdgeStyle;html=1;align=left;spacingLeft=2;endArrow=block;rounded=0;entryX=1;entryY=0;" parent="1" edge="1">
          <mxGeometry x="0.0769" relative="1" as="geometry">
            <mxPoint x="425" y="320" as="sourcePoint" />
            <Array as="points">
              <mxPoint x="450" y="320" />
            </Array>
            <mxPoint x="430" y="340" as="targetPoint" />
            <mxPoint as="offset" />
          </mxGeometry>
        </mxCell>
        <mxCell id="rhqVc5pt0watMIWav85S-34" value="目睹身份授予接口" style="shape=umlLifeline;participant=umlEntity;perimeter=lifelinePerimeter;whiteSpace=wrap;html=1;container=1;collapsible=0;recursiveResize=0;verticalAlign=top;spacingTop=36;outlineConnect=0;" parent="1" vertex="1">
          <mxGeometry x="630" y="60" width="40" height="650" as="geometry" />
        </mxCell>
        <mxCell id="rhqVc5pt0watMIWav85S-37" value="打开身份赋予链接" style="html=1;verticalAlign=bottom;endArrow=block;entryX=0;entryY=0;" parent="1" source="rhqVc5pt0watMIWav85S-2" target="rhqVc5pt0watMIWav85S-36" edge="1">
          <mxGeometry relative="1" as="geometry">
            <mxPoint x="575" y="570" as="sourcePoint" />
          </mxGeometry>
        </mxCell>
        <mxCell id="rhqVc5pt0watMIWav85S-38" value="跳转到直播间" style="html=1;verticalAlign=bottom;endArrow=open;dashed=1;endSize=8;exitX=0;exitY=0.95;" parent="1" source="rhqVc5pt0watMIWav85S-36" edge="1">
          <mxGeometry x="-0.0476" relative="1" as="geometry">
            <mxPoint x="430" y="636" as="targetPoint" />
            <mxPoint as="offset" />
          </mxGeometry>
        </mxCell>
        <mxCell id="rhqVc5pt0watMIWav85S-36" value="" style="html=1;points=[];perimeter=orthogonalPerimeter;" parent="1" vertex="1">
          <mxGeometry x="645" y="560" width="10" height="80" as="geometry" />
        </mxCell>
        <mxCell id="rhqVc5pt0watMIWav85S-42" value="从目睹域名下拿cookie" style="text;html=1;align=center;verticalAlign=middle;resizable=0;points=[];autosize=1;" parent="1" vertex="1">
          <mxGeometry x="655" y="575" width="130" height="20" as="geometry" />
        </mxCell>
      </root>
    </mxGraphModel>
  </diagram>
</mxfile>
